<svg width="152" height="56" viewBox="0 0 152 56" fill="none" xmlns="http://www.w3.org/2000/svg">
<g id="Google_Play_Store_badge_EN 1">
<path id="Vector" d="M78.7066 22.5156C78.0361 22.5156 77.4709 22.2798 77.0239 21.8157C76.5806 21.3645 76.333 20.7425 76.3441 20.1075C76.3441 19.4298 76.5732 18.8561 77.0239 18.4012C77.469 17.937 78.0343 17.7012 78.7048 17.7012C79.3679 17.7012 79.9331 17.937 80.3875 18.4012C80.8382 18.8709 81.0673 19.4446 81.0673 20.1075C81.0599 20.787 80.8308 21.3608 80.3875 21.8138C79.9424 22.2817 79.3771 22.5156 78.7066 22.5156ZM58.7556 22.5156C58.0999 22.5156 57.531 22.2836 57.0655 21.8249C56.6037 21.3682 56.3691 20.7908 56.3691 20.1093C56.3691 19.4279 56.6037 18.8505 57.0655 18.3937C57.5218 17.9351 58.0907 17.703 58.7556 17.703C59.0807 17.703 59.3966 17.768 59.6995 17.8998C59.9969 18.028 60.2389 18.2025 60.4181 18.416L60.4624 18.4699L59.9618 18.9637L59.9101 18.9025C59.6275 18.5645 59.2488 18.3993 58.7483 18.3993C58.3012 18.3993 57.9115 18.559 57.5901 18.8746C57.2669 19.1921 57.1025 19.608 57.1025 20.1112C57.1025 20.6144 57.2669 21.0303 57.5901 21.3478C57.9115 21.6634 58.3012 21.8231 58.7483 21.8231C59.2248 21.8231 59.6257 21.6634 59.9378 21.3478C60.1225 21.1621 60.2371 20.9022 60.2777 20.5735H58.6725V19.8791H60.9667L60.9759 19.9422C60.9925 20.0592 61.0092 20.1799 61.0092 20.2913C61.0092 20.9319 60.8171 21.4499 60.4365 21.8324C60.0043 22.2854 59.4391 22.5156 58.7556 22.5156ZM85.2824 22.4172H84.575L82.4083 18.9322L82.4268 19.5597V22.4154H81.7193V17.8014H82.5265L82.5487 17.8367L84.5861 21.1194L84.5676 20.4937V17.8014H85.2824V22.4172ZM73.3906 22.4172H72.6739V18.4958H71.4307V17.8014H74.6318V18.4958H73.3887V22.4172H73.3906ZM70.847 22.4172H70.1322V17.8014H70.847V22.4172ZM66.8295 22.4172H66.1147V18.4958H64.8715V17.8014H68.0726V18.4958H66.8295V22.4172ZM64.419 22.4098H61.6778V17.8014H64.419V18.4958H62.3945V19.7621H64.2213V20.4491H62.3945V21.7154H64.419V22.4098ZM77.5485 21.3385C77.868 21.6597 78.2559 21.8212 78.7066 21.8212C79.1703 21.8212 79.5489 21.6634 79.8648 21.3385C80.1788 21.0228 80.3376 20.6088 80.3376 20.1093C80.3376 19.6099 80.1788 19.194 79.8666 18.8802C79.5471 18.559 79.1573 18.3974 78.7085 18.3974C78.2448 18.3974 77.8662 18.5553 77.5522 18.8802C77.2381 19.1958 77.0793 19.6099 77.0793 20.1093C77.0793 20.6088 77.2363 21.0247 77.5485 21.3385Z" fill="white"/>
<path id="Vector_2" fill-rule="evenodd" clip-rule="evenodd" d="M76.2774 28.8614C74.5319 28.8614 73.117 30.1926 73.117 32.0289C73.117 33.8485 74.5411 35.1965 76.2774 35.1965C78.023 35.1965 79.4379 33.8559 79.4379 32.0289C79.4379 30.1926 78.023 28.8614 76.2774 28.8614ZM76.2774 33.9413C75.3225 33.9413 74.5005 33.1467 74.5005 32.0215C74.5005 30.8796 75.3243 30.1016 76.2774 30.1016C77.2324 30.1016 78.0544 30.8796 78.0544 32.0215C78.0562 33.1541 77.2324 33.9413 76.2774 33.9413ZM69.382 28.8614C67.6365 28.8614 66.2216 30.1926 66.2216 32.0289C66.2216 33.8485 67.6457 35.1965 69.382 35.1965C71.1276 35.1965 72.5425 33.8559 72.5425 32.0289C72.5425 30.1926 71.1257 28.8614 69.382 28.8614ZM69.382 33.9413C68.4271 33.9413 67.6051 33.1467 67.6051 32.0215C67.6051 30.8796 68.4289 30.1016 69.382 30.1016C70.337 30.1016 71.159 30.8796 71.159 32.0215C71.159 33.1541 70.337 33.9413 69.382 33.9413ZM61.177 29.8287V31.1693H64.3781C64.2802 31.9212 64.0327 32.4764 63.654 32.857C63.1849 33.3286 62.4608 33.8411 61.1844 33.8411C59.2172 33.8411 57.6785 32.2443 57.6785 30.2669C57.6785 28.2895 59.2172 26.6927 61.1844 26.6927C62.2465 26.6927 63.0205 27.1142 63.5949 27.6526L64.5407 26.702C63.7427 25.9333 62.6806 25.3447 61.1918 25.3447C58.4931 25.3447 56.2285 27.5542 56.2285 30.2595C56.2285 32.9721 58.4913 35.1742 61.1918 35.1742C62.6492 35.1742 63.7427 34.6952 64.6072 33.7928C65.4883 32.9071 65.7672 31.6576 65.7672 30.6494C65.7672 30.3356 65.7432 30.0534 65.6933 29.8138H61.1752C61.177 29.812 61.177 29.8287 61.177 29.8287ZM94.7378 30.8722C94.4736 30.1611 93.6757 28.8539 92.0391 28.8539C90.4173 28.8539 89.0689 30.1369 89.0689 32.0215C89.0689 33.8002 90.4025 35.189 92.1961 35.189C93.6369 35.189 94.4755 34.3034 94.8209 33.7835L93.7514 33.0631C93.3968 33.5923 92.9036 33.9395 92.2035 33.9395C91.4961 33.9395 91.001 33.6164 90.6722 32.9796L94.8856 31.225C94.8856 31.2268 94.7378 30.8722 94.7378 30.8722ZM90.4413 31.9305C90.4081 30.7069 91.3871 30.0849 92.0871 30.0849C92.6394 30.0849 93.0994 30.3579 93.2564 30.7552L90.4413 31.9305ZM87.0186 34.9997H88.4021V25.6938H87.0186V34.9997ZM84.7466 29.565H84.6967C84.3845 29.1918 83.7916 28.8539 83.0343 28.8539C81.4624 28.8539 80.0142 30.2446 80.0142 32.0308C80.0142 33.8095 81.455 35.1835 83.0343 35.1835C83.7824 35.1835 84.3845 34.8437 84.6967 34.4631H84.7466V34.918C84.7466 36.1267 84.1038 36.7784 83.0675 36.7784C82.2197 36.7784 81.6933 36.1657 81.479 35.6532L80.2765 36.1583C80.6219 36.9938 81.5436 38.028 83.0657 38.028C84.6875 38.028 86.0618 37.068 86.0618 34.7267V29.0433H84.754V29.565C84.7558 29.565 84.7466 29.565 84.7466 29.565ZM83.158 33.9413C82.2031 33.9413 81.4051 33.1392 81.4051 32.0308C81.4051 30.913 82.2031 30.1035 83.158 30.1035C84.1038 30.1035 84.8371 30.9223 84.8371 32.0308C84.8463 33.1392 84.1056 33.9413 83.158 33.9413ZM101.216 25.6938H97.9075V34.9997H99.291V31.4756H101.218C102.749 31.4756 104.254 30.3597 104.254 28.5884C104.254 26.8171 102.754 25.6938 101.216 25.6938ZM101.256 30.1759H99.2892V26.9824H101.256C102.293 26.9824 102.878 27.842 102.878 28.5791C102.878 29.3088 102.285 30.1759 101.256 30.1759ZM109.799 28.8446C108.795 28.8446 107.758 29.2921 107.33 30.2669L108.556 30.7793C108.82 30.2669 109.304 30.0924 109.816 30.0924C110.533 30.0924 111.257 30.5231 111.273 31.2918V31.3902C111.026 31.2491 110.483 31.0337 109.833 31.0337C108.508 31.0337 107.165 31.7615 107.165 33.1262C107.165 34.3758 108.252 35.1779 109.461 35.1779C110.39 35.1779 110.902 34.7564 111.222 34.2681H111.272V34.9885H112.605V31.4236C112.605 29.7637 111.379 28.8446 109.799 28.8446ZM109.626 33.9413C109.173 33.9413 108.54 33.7185 108.54 33.1467C108.54 32.4262 109.33 32.1533 110.004 32.1533C110.614 32.1533 110.902 32.2851 111.264 32.4671C111.164 33.3026 110.463 33.9339 109.626 33.9413ZM117.471 29.0433L115.882 33.0798H115.832L114.186 29.0433H112.698L115.167 34.6859L113.76 37.8219H115.2L119 29.0433H117.471ZM105.017 34.9997H106.401V25.6938H105.017V34.9997Z" fill="white"/>
<path id="Vector_3" fill-rule="evenodd" clip-rule="evenodd" d="M33.5392 18.2728C33.3249 18.5049 33.2012 18.8595 33.2012 19.3237V35.7872C33.2012 36.2514 33.3249 36.606 33.5466 36.8288L33.6038 36.879L42.7805 27.6548V27.4487L33.5965 18.2227L33.5392 18.2728Z" fill="url(#paint0_linear_70_1800)"/>
<path id="Vector_4" fill-rule="evenodd" clip-rule="evenodd" d="M45.8342 30.7387L42.7734 27.6621V27.4467L45.8342 24.3701L45.9007 24.411L49.5211 26.4793C50.5573 27.0661 50.5573 28.0353 49.5211 28.6294L45.9007 30.6978L45.8342 30.7387Z" fill="url(#paint1_linear_70_1800)"/>
<path id="Vector_5" fill-rule="evenodd" clip-rule="evenodd" d="M45.9002 30.6981L42.7729 27.5547L33.5391 36.8364C33.8771 37.2003 34.4442 37.2412 35.0777 36.8866L45.9002 30.6981Z" fill="url(#paint2_linear_70_1800)"/>
<path id="Vector_6" fill-rule="evenodd" clip-rule="evenodd" d="M45.9002 24.4107L35.0777 18.2316C34.4442 17.8677 33.8752 17.9178 33.5391 18.2817L42.7729 27.5542L45.9002 24.4107Z" fill="url(#paint3_linear_70_1800)"/>
<path id="Vector_7" opacity="0.12" fill-rule="evenodd" clip-rule="evenodd" d="M49.5223 28.522L45.8262 30.6313L45.8927 30.6981L49.5131 28.6297C50.0321 28.3327 50.287 27.9427 50.287 27.5547C50.2556 27.9112 49.9915 28.2491 49.5223 28.522Z" fill="#140F14"/>
<path id="Vector_8" opacity="0.25" fill-rule="evenodd" clip-rule="evenodd" d="M35.0779 18.3396L49.5207 26.5871C49.9899 26.8526 50.254 27.1999 50.2946 27.5545C50.2946 27.1664 50.0397 26.7765 49.5207 26.4794L35.0779 18.2319C34.0416 17.6359 33.2012 18.1335 33.2012 19.3236V19.4313C33.2012 18.2393 34.0416 17.751 35.0779 18.3396Z" fill="white"/>
<rect x="0.5" y="0.5" width="151" height="55" rx="27.5" stroke="url(#paint4_linear_70_1800)"/>
</g>
<defs>
<linearGradient id="paint0_linear_70_1800" x1="41.9573" y1="19.1461" x2="27.248" y2="23.0452" gradientUnits="userSpaceOnUse">
<stop stop-color="#00A0FF"/>
<stop offset="0.00657" stop-color="#00A1FF"/>
<stop offset="0.2601" stop-color="#00BEFF"/>
<stop offset="0.5122" stop-color="#00D2FF"/>
<stop offset="0.7604" stop-color="#00DFFF"/>
<stop offset="1" stop-color="#00E3FF"/>
</linearGradient>
<linearGradient id="paint1_linear_70_1800" x1="50.8724" y1="27.5544" x2="32.9497" y2="27.5544" gradientUnits="userSpaceOnUse">
<stop stop-color="#FFE000"/>
<stop offset="0.4087" stop-color="#FFBD00"/>
<stop offset="0.7754" stop-color="#FFA500"/>
<stop offset="1" stop-color="#FF9C00"/>
</linearGradient>
<linearGradient id="paint2_linear_70_1800" x1="44.1997" y1="29.2652" x2="32.3087" y2="49.1754" gradientUnits="userSpaceOnUse">
<stop stop-color="#FF3A44"/>
<stop offset="1" stop-color="#C31162"/>
</linearGradient>
<linearGradient id="paint3_linear_70_1800" x1="31.2139" y1="12.7964" x2="36.5189" y2="21.6887" gradientUnits="userSpaceOnUse">
<stop stop-color="#32A071"/>
<stop offset="0.0685" stop-color="#2DA771"/>
<stop offset="0.4762" stop-color="#15CF74"/>
<stop offset="0.8009" stop-color="#06E775"/>
<stop offset="1" stop-color="#00F076"/>
</linearGradient>
<linearGradient id="paint4_linear_70_1800" x1="40.5333" y1="28" x2="147.947" y2="28" gradientUnits="userSpaceOnUse">
<stop stop-color="#800BF5"/>
<stop offset="1" stop-color="#25C6F9"/>
</linearGradient>
</defs>
</svg>
