<svg width="139" height="66" viewBox="0 0 139 66" fill="none" xmlns="http://www.w3.org/2000/svg">
<g id="logo">
<path id="Vector" d="M12.1852 0.172882L3.70725 1.5625C1.24591 1.96594 -0.339699 4.21269 0.0621339 6.57518L5.35914 37.7174C5.76101 40.0797 8.00416 41.699 10.4655 41.2953C12.8722 40.9009 14.5125 38.6453 14.1106 36.2829L12.2749 25.4905L16.3772 24.8181C23.3237 23.6793 28.0167 17.2256 26.8569 10.4066C25.7061 3.64128 19.1317 -0.965689 12.1852 0.172882ZM14.916 16.2272L10.8137 16.8996L9.54423 9.43617L13.6465 8.7638C15.7796 8.41415 17.7584 9.8007 18.1054 11.841C18.4707 13.9888 17.0491 15.8775 14.916 16.2272Z" fill="#49CBF4"/>
<path id="Vector_2" d="M55.453 35.6733L43.5424 9.53598C43.1288 8.67826 42.485 8.00111 41.6111 7.63999C40.6913 7.27886 39.5418 7.27886 38.622 7.63999C37.7943 8.00111 37.0584 8.67826 36.6907 9.53598L24.7803 35.6733C23.9525 37.4791 24.7803 39.646 26.6197 40.4134C28.2292 41.0904 30.4827 40.639 31.4483 38.5626L33.1037 34.9963H47.1756L48.7851 38.5626C49.7507 40.6843 52.0961 41.1808 53.6134 40.4134C55.4071 39.5105 56.2806 37.4791 55.453 35.6733ZM36.4147 27.8188L40.1397 19.6026L43.8647 27.8188H36.4147Z" fill="#49CBF4"/>
<path id="Vector_3" d="M80.4639 32.0581L75.7902 24.2877C78.8218 22.7171 80.8429 19.576 80.8429 15.9386C80.8429 10.7308 76.5482 6.47363 71.2009 6.47363H64.6326C62.8223 6.47363 61.3066 7.96159 61.3066 9.78017V33.7525C61.3066 35.5713 62.8223 37.0591 64.6326 37.0591C66.5275 37.0591 68.0432 35.5713 68.0432 33.7525V25.4448H68.6747L74.6536 35.4472C75.7063 37.1832 77.7691 37.4311 79.243 36.5633C80.8429 35.6127 81.3901 33.67 80.4639 32.0581ZM74.1482 15.9386C74.1482 17.592 72.8429 18.8319 71.2009 18.8319H68.0432V13.0867H71.2009C72.8429 13.0867 74.1482 14.368 74.1482 15.9386Z" fill="#49CBF4"/>
<path id="Vector_4" d="M105.977 1.74316H89.0596C86.6272 1.74316 84.6816 3.65321 84.6816 5.9877C84.6816 8.32224 86.6272 10.2323 89.0596 10.2323H93.2214V36.7607C93.2214 39.0954 95.167 41.0053 97.5453 41.0053C99.8692 41.0053 101.815 39.0954 101.815 36.7607V10.2323H105.977C108.409 10.2323 110.355 8.32224 110.355 5.9877C110.355 3.65321 108.409 1.74316 105.977 1.74316Z" fill="#49CBF4"/>
<path id="Vector_5" d="M138.131 14.0462C136.738 12.4699 134.386 12.2383 132.792 13.5612L125.095 19.9079L121.662 10.6337C120.956 8.70599 118.801 7.75207 116.837 8.44523C114.862 9.18356 113.844 11.2869 114.596 13.2267L119.441 26.3564L115.867 39.4488C115.337 41.3901 116.504 43.4388 118.527 43.9713C120.551 44.5035 122.65 43.3137 123.18 41.3724L126.754 28.2796L137.637 19.2873C139.231 17.9643 139.466 15.6555 138.131 14.0462Z" fill="#49CBF4"/>
<path id="Vector_6" d="M33.0161 61.8622C33.0161 61.4252 32.8479 61.07 32.5118 60.7967C32.1897 60.5237 31.7765 60.2779 31.2722 60.0592C30.7818 59.827 30.2422 59.5947 29.654 59.3625C29.0797 59.1167 28.5401 58.8231 28.0359 58.4816C27.5456 58.1267 27.1323 57.6894 26.7961 57.1706C26.4739 56.6515 26.3128 55.9892 26.3128 55.1831C26.3128 54.4867 26.4318 53.8858 26.67 53.3805C26.9082 52.8614 27.2444 52.431 27.6787 52.0898C28.1269 51.7482 28.6522 51.4954 29.2547 51.3318C29.8572 51.1678 30.5297 51.0859 31.2722 51.0859C32.1265 51.0859 32.9322 51.1608 33.6886 51.3112C34.445 51.4477 35.0686 51.6528 35.5589 51.9258L34.6554 54.2817C34.3472 54.0905 33.8847 53.9199 33.2683 53.7698C32.6518 53.6058 31.9865 53.5237 31.2722 53.5237C30.5997 53.5237 30.0811 53.6535 29.7168 53.9129C29.3668 54.1727 29.1915 54.5209 29.1915 54.9579C29.1915 55.3677 29.3529 55.7092 29.675 55.9822C30.0111 56.2556 30.4243 56.508 30.9147 56.7403C31.419 56.9725 31.9586 57.2114 32.5329 57.4572C33.1211 57.7033 33.6607 58.0038 34.1508 58.3587C34.6554 58.7002 35.0686 59.1306 35.3907 59.6494C35.7268 60.155 35.895 60.7901 35.895 61.5547C35.895 62.3197 35.7618 62.982 35.4957 63.5422C35.2436 64.0885 34.8793 64.546 34.4029 64.9148C33.9407 65.2835 33.3733 65.5565 32.7011 65.7341C32.0425 65.9117 31.314 66.0004 30.5154 66.0004C29.4647 66.0004 28.5401 65.905 27.7417 65.7135C26.9432 65.5224 26.3548 65.3312 25.9766 65.1401L26.9012 62.7431C27.0552 62.8249 27.2514 62.9137 27.4895 63.0095C27.7417 63.1049 28.0219 63.1937 28.3301 63.2758C28.6383 63.3577 28.9604 63.4259 29.2968 63.4806C29.6468 63.5352 30.0043 63.5624 30.3683 63.5624C31.2229 63.5624 31.8743 63.4259 32.3225 63.1529C32.785 62.866 33.0161 62.4356 33.0161 61.8622ZM48.9922 53.8722H44.7054V65.7135H41.8265V53.8722H37.519V51.3725H48.9922V53.8722ZM56.8355 62.538H52.3173L51.2037 65.7135H48.3248L53.6201 51.2701H55.7426L61.0383 65.7135H58.0122L56.8355 62.538ZM53.053 60.2845H56.2051L55.1123 57.0884L54.6708 54.8349H54.5658L54.1248 57.109L53.053 60.2845ZM71.8465 53.8722H67.5597V65.7135H64.6808V53.8722H60.3729V51.3725H71.8465V53.8722ZM74.3757 51.3725H77.2546V65.7135H74.3757V51.3725ZM80.3469 58.5432C80.3469 56.1529 80.8862 54.3161 81.9648 53.032C83.0437 51.7346 84.5844 51.0859 86.588 51.0859C87.6387 51.0859 88.5562 51.2635 89.3408 51.6183C90.1251 51.9735 90.7765 52.4791 91.2951 53.1347C91.8133 53.79 92.1987 54.5755 92.4508 55.4906C92.703 56.4056 92.829 57.4231 92.829 58.5432C92.829 60.9332 92.2826 62.7772 91.1898 64.0746C90.1112 65.3587 88.5773 66.0004 86.588 66.0004C85.5233 66.0004 84.5987 65.8229 83.8141 65.4677C83.0294 65.1129 82.378 64.6073 81.8598 63.9517C81.3555 63.2964 80.9773 62.5108 80.7252 61.5958C80.473 60.6807 80.3469 59.663 80.3469 58.5432ZM83.3727 58.5432C83.3727 59.2671 83.4359 59.9363 83.5619 60.5509C83.688 61.1519 83.8773 61.671 84.1294 62.108C84.3955 62.545 84.7316 62.8865 85.138 63.1324C85.5441 63.3782 86.0276 63.5011 86.588 63.5011C87.6105 63.5011 88.4019 63.1118 88.9623 62.3333C89.523 61.5547 89.803 60.2915 89.803 58.5432C89.803 57.8465 89.7401 57.1978 89.6137 56.5968C89.5019 55.9958 89.3198 55.47 89.0676 55.0195C88.8155 54.5686 88.4862 54.2204 88.0798 53.9745C87.6737 53.7151 87.1762 53.5853 86.588 53.5853C85.5651 53.5853 84.7737 53.9881 84.2134 54.7939C83.653 55.5863 83.3727 56.836 83.3727 58.5432ZM99.2784 58.2357L98.1227 55.9822H98.0177L98.3541 58.2357V65.7135H95.6223V51.2701H97.7234L103.292 58.9119L104.406 61.1041H104.511L104.175 58.9119V51.3725H106.907V65.8162H104.805L99.2784 58.2357Z" fill="white"/>
</g>
</svg>
