<svg width="282" height="284" viewBox="0 0 282 284" fill="none" xmlns="http://www.w3.org/2000/svg">
<g id="&#208;&#160;&#194;&#160;&#208;&#160;&#194;&#181;&#208;&#160;&#194;&#182;&#208;&#160;&#209;&#145;&#208;&#160;&#209;&#152; &#208;&#160;&#209;&#145;&#208;&#160;&#194;&#183;&#208;&#160;&#209;&#149;&#208;&#160;&#194;&#187;&#208;&#161;&#208;&#143;&#208;&#161;&#226;&#128;&#160;&#208;&#160;&#209;&#145;&#208;&#160;&#209;&#145;">
<g id="Group">
<g id="Group_2" filter="url(#filter0_d_70_1531)">
<path id="Vector" d="M131.287 224.782C130.479 224.782 129.652 224.703 128.824 224.526C124.253 223.6 120.667 220.211 119.465 215.699L108.491 174.185L68.0609 159.704C63.6672 158.127 60.6132 154.266 60.0813 149.636C59.5493 145.005 61.6575 140.553 65.5783 138.011L101.674 114.742L102.954 71.8295C103.092 67.1599 105.811 63.0618 110.067 61.1112C114.303 59.1803 119.189 59.7911 122.815 62.7465L156.093 89.8772L197.311 77.8388C201.803 76.5384 206.532 77.8388 209.684 81.2868C212.837 84.7348 213.763 89.5619 212.068 93.9163L196.542 133.952L220.737 169.437C223.358 173.299 223.575 178.224 221.269 182.283C218.984 186.342 214.669 188.706 209.999 188.45L167.126 186.066L140.862 220.034C138.518 223.068 134.991 224.762 131.267 224.762L131.287 224.782ZM75.8237 147.843L113.968 161.516C117.731 162.876 120.608 165.989 121.633 169.87L131.996 209.039L156.782 176.983C159.225 173.811 163.107 172.057 167.087 172.274L207.537 174.52L184.721 141.045C182.455 137.735 181.982 133.519 183.42 129.795L198.06 92.0248L159.166 103.393C155.324 104.516 151.167 103.669 148.054 101.147L116.648 75.5533L115.426 116.042C115.308 120.042 113.22 123.746 109.85 125.913L75.804 147.862L75.8237 147.843Z" fill="#FFF8C4"/>
</g>
<g id="Group_3" filter="url(#filter1_d_70_1531)">
<path id="Vector_2" d="M131.287 224.782C130.479 224.782 129.652 224.703 128.824 224.526C124.253 223.6 120.667 220.211 119.465 215.699L108.491 174.185L68.0609 159.704C63.6672 158.127 60.6132 154.266 60.0813 149.636C59.5493 145.005 61.6575 140.553 65.5783 138.011L101.674 114.742L102.954 71.8295C103.092 67.1599 105.811 63.0618 110.067 61.1112C114.303 59.1803 119.189 59.7911 122.815 62.7465L156.093 89.8772L197.311 77.8388C201.803 76.5384 206.532 77.8388 209.684 81.2868C212.837 84.7348 213.763 89.5619 212.068 93.9163L196.542 133.952L220.737 169.437C223.358 173.299 223.575 178.224 221.269 182.283C218.984 186.342 214.669 188.706 209.999 188.45L167.126 186.066L140.862 220.034C138.518 223.068 134.991 224.762 131.267 224.762L131.287 224.782ZM75.8237 147.843L113.968 161.516C117.731 162.876 120.608 165.989 121.633 169.87L131.996 209.039L156.782 176.983C159.225 173.811 163.107 172.057 167.087 172.274L207.537 174.52L184.721 141.045C182.455 137.735 181.982 133.519 183.42 129.795L198.06 92.0248L159.166 103.393C155.324 104.516 151.167 103.669 148.054 101.147L116.648 75.5533L115.426 116.042C115.308 120.042 113.22 123.746 109.85 125.913L75.804 147.862L75.8237 147.843Z" fill="#FFF8C4" stroke="#FFD359" stroke-width="3.94055" stroke-miterlimit="10"/>
</g>
</g>
<path id="Vector_3" style="mix-blend-mode:color-dodge" opacity="0.7" d="M154.202 98.8733C171.481 84.6282 204.68 96.3316 228.363 125.038C252.046 153.745 257.227 188.56 239.968 202.805C222.688 217.05 189.489 205.347 165.807 176.64C142.124 147.933 136.942 113.118 154.202 98.8733Z" fill="url(#paint0_radial_70_1531)"/>
</g>
<defs>
<filter id="filter0_d_70_1531" x="0.891781" y="0.891781" width="281.078" height="282.998" filterUnits="userSpaceOnUse" color-interpolation-filters="sRGB">
<feFlood flood-opacity="0" result="BackgroundImageFix"/>
<feColorMatrix in="SourceAlpha" type="matrix" values="0 0 0 0 0 0 0 0 0 0 0 0 0 0 0 0 0 0 127 0" result="hardAlpha"/>
<feOffset/>
<feGaussianBlur stdDeviation="29.5541"/>
<feColorMatrix type="matrix" values="0 0 0 0 1 0 0 0 0 0.827451 0 0 0 0 0.34902 0 0 0 1 0"/>
<feBlend mode="normal" in2="BackgroundImageFix" result="effect1_dropShadow_70_1531"/>
<feBlend mode="normal" in="SourceGraphic" in2="effect1_dropShadow_70_1531" result="shape"/>
</filter>
<filter id="filter1_d_70_1531" x="30.4455" y="30.4459" width="221.97" height="223.89" filterUnits="userSpaceOnUse" color-interpolation-filters="sRGB">
<feFlood flood-opacity="0" result="BackgroundImageFix"/>
<feColorMatrix in="SourceAlpha" type="matrix" values="0 0 0 0 0 0 0 0 0 0 0 0 0 0 0 0 0 0 127 0" result="hardAlpha"/>
<feOffset/>
<feGaussianBlur stdDeviation="13.7919"/>
<feColorMatrix type="matrix" values="0 0 0 0 1 0 0 0 0 0.827451 0 0 0 0 0.34902 0 0 0 1 0"/>
<feBlend mode="normal" in2="BackgroundImageFix" result="effect1_dropShadow_70_1531"/>
<feBlend mode="normal" in="SourceGraphic" in2="effect1_dropShadow_70_1531" result="shape"/>
</filter>
<radialGradient id="paint0_radial_70_1531" cx="0" cy="0" r="1" gradientUnits="userSpaceOnUse" gradientTransform="translate(204.142 158.971) rotate(-129.53) scale(67.167 40.8024)">
<stop stop-color="#A0A349"/>
<stop offset="1"/>
</radialGradient>
</defs>
</svg>
